<svg width="24" height="27" viewBox="0 0 24 27" fill="none" xmlns="http://www.w3.org/2000/svg">
<g id="Group 2069">
<path id="Vector" d="M12.0009 15.329C13.724 15.329 15.1209 13.7866 15.1209 11.884C15.1209 9.98134 13.724 8.43896 12.0009 8.43896C10.2777 8.43896 8.88086 9.98134 8.88086 11.884C8.88086 13.7866 10.2777 15.329 12.0009 15.329Z" stroke="#A7B5BE" stroke-width="1.5"/>
<path id="Vector_2" d="M3.61971 9.87454C5.58971 0.312457 18.4197 0.323499 20.3797 9.88558C21.5297 15.4947 18.77 19.5629 16 22.5C14.9954 23.5706 12 25.7863 12 25.7863C12 25.7863 9.00958 23.5715 7.99918 22.5C5.23918 19.5629 2.46971 15.4837 3.61971 9.87454Z" stroke="#A7B5BE" stroke-width="1.5"/>
</g>
</svg>
